<svg width="879" height="298" viewBox="0 0 879 298" fill="none" xmlns="http://www.w3.org/2000/svg">
<path d="M561.925 183.221V129.561C561.925 122.8 560.386 117.754 557.308 114.424C554.23 111.094 549.412 109.429 542.853 109.429C534.174 109.429 527.817 111.775 523.78 116.468C519.744 121.16 517.726 128.905 517.726 139.703V183.221H505.162V100.271H515.379L517.423 111.624H518.028C520.602 107.537 524.209 104.384 528.851 102.164C533.493 99.8931 538.665 98.7578 544.366 98.7578C554.356 98.7578 561.874 101.18 566.92 106.023C571.965 110.817 574.488 118.511 574.488 129.107V183.221H561.925Z" fill="black"/>
<path d="M453.168 184.734C440.907 184.734 431.22 181.001 424.105 173.533C417.042 166.066 413.51 155.697 413.51 142.427C413.51 129.056 416.789 118.436 423.349 110.564C429.958 102.693 438.813 98.7578 449.914 98.7578C460.307 98.7578 468.532 102.189 474.586 109.051C480.641 115.862 483.668 124.869 483.668 136.07V144.017H426.527C426.78 153.755 429.227 161.146 433.869 166.192C438.561 171.237 445.146 173.76 453.622 173.76C462.553 173.76 471.382 171.893 480.111 168.16V179.361C475.671 181.278 471.458 182.64 467.472 183.448C463.537 184.306 458.769 184.734 453.168 184.734ZM449.762 109.278C443.102 109.278 437.779 111.447 433.793 115.787C429.857 120.126 427.536 126.13 426.83 133.799H470.197C470.197 125.878 468.431 119.823 464.899 115.635C461.367 111.397 456.321 109.278 449.762 109.278Z" fill="black"/>
<path d="M369.612 82.4863C357.452 82.4863 347.841 86.548 340.777 94.6714C333.764 102.744 330.257 113.819 330.257 127.896C330.257 142.377 333.637 153.578 340.398 161.5C347.21 169.371 356.897 173.307 369.461 173.307C377.181 173.307 385.985 171.919 395.875 169.144V180.421C388.205 183.297 378.745 184.735 367.493 184.735C351.196 184.735 338.607 179.79 329.727 169.901C320.897 160.012 316.482 145.96 316.482 127.745C316.482 116.342 318.602 106.352 322.84 97.7744C327.129 89.1969 333.284 82.5872 341.307 77.9453C349.38 73.3034 358.865 70.9824 369.764 70.9824C381.368 70.9824 391.51 73.1016 400.188 77.3398L394.739 88.3896C386.364 84.4541 377.988 82.4863 369.612 82.4863Z" fill="black"/>
<path d="M855.283 183.221V129.258C855.283 122.649 853.87 117.704 851.044 114.424C848.219 111.094 843.829 109.429 837.875 109.429C830.055 109.429 824.278 111.674 820.544 116.165C816.81 120.656 814.943 127.568 814.943 136.902V183.221H802.38V129.258C802.38 122.649 800.967 117.704 798.142 114.424C795.316 111.094 790.901 109.429 784.897 109.429C777.026 109.429 771.249 111.801 767.565 116.543C763.933 121.236 762.116 128.956 762.116 139.703V183.221H749.553V100.271H759.77L761.813 111.624H762.419C764.79 107.588 768.12 104.434 772.409 102.164C776.748 99.8931 781.592 98.7578 786.94 98.7578C799.908 98.7578 808.384 103.45 812.37 112.835H812.976C815.448 108.496 819.03 105.065 823.723 102.542C828.415 100.019 833.763 98.7578 839.768 98.7578C849.152 98.7578 856.166 101.18 860.808 106.023C865.5 110.817 867.846 118.511 867.846 129.107V183.221H855.283Z" fill="black"/>
<path d="M666.149 100.271V154.083C666.149 160.844 667.688 165.889 670.766 169.219C673.844 172.549 678.662 174.214 685.222 174.214C693.9 174.214 700.232 171.843 704.218 167.1C708.255 162.357 710.273 154.612 710.273 143.865V100.271H722.836V183.221H712.468L710.651 172.095H709.97C707.397 176.182 703.815 179.31 699.223 181.48C694.682 183.65 689.485 184.734 683.632 184.734C673.541 184.734 665.973 182.338 660.927 177.544C655.932 172.751 653.435 165.082 653.435 154.537V100.271H666.149Z" fill="black"/>
<path d="M632.68 98.6756V109.684H588.866V98.6756H632.68ZM601.636 78.4199H614.626V159.002C614.626 162.672 615.158 165.424 616.222 167.259C617.323 169.057 618.718 170.268 620.406 170.892C622.13 171.479 623.947 171.772 625.855 171.772C627.286 171.772 628.46 171.699 629.378 171.552C630.295 171.369 631.029 171.222 631.579 171.112L634.221 182.781C633.341 183.111 632.111 183.441 630.533 183.771C628.956 184.138 626.956 184.322 624.534 184.322C620.864 184.322 617.268 183.533 613.745 181.955C610.259 180.377 607.361 177.974 605.049 174.744C602.774 171.515 601.636 167.442 601.636 162.525V78.4199Z" fill="black"/>
<path d="M854.6 246.3V263.222H849.868V222.531H861.029C866.02 222.531 869.703 223.487 872.078 225.398C874.472 227.309 875.668 230.185 875.668 234.026C875.668 239.407 872.941 243.043 867.486 244.936L878.535 263.222H872.941L863.088 246.3H854.6ZM854.6 242.236H861.084C864.424 242.236 866.874 241.578 868.432 240.26C869.991 238.924 870.77 236.93 870.77 234.276C870.77 231.586 869.972 229.647 868.376 228.459C866.799 227.272 864.257 226.678 860.75 226.678H854.6V242.236Z" fill="black"/>
<path d="M832.843 263.222H810.16V222.531H832.843V226.734H814.892V239.843H831.758V244.018H814.892V258.991H832.843V263.222Z" fill="black"/>
<path d="M796.558 263.222H790.991L776.157 243.489L771.898 247.274V263.222H767.167V222.531H771.898V242.709L790.351 222.531H795.945L779.58 240.205L796.558 263.222Z" fill="black"/>
<path d="M740.651 226.176C736.18 226.176 732.645 227.669 730.047 230.657C727.468 233.625 726.179 237.698 726.179 242.875C726.179 248.2 727.422 252.319 729.908 255.232C732.413 258.127 735.976 259.574 740.596 259.574C743.435 259.574 746.672 259.064 750.309 258.043V262.19C747.489 263.248 744.01 263.777 739.872 263.777C733.879 263.777 729.25 261.958 725.984 258.322C722.737 254.685 721.113 249.518 721.113 242.819C721.113 238.626 721.893 234.952 723.451 231.798C725.028 228.644 727.292 226.213 730.242 224.506C733.211 222.799 736.699 221.945 740.707 221.945C744.975 221.945 748.704 222.725 751.896 224.283L749.892 228.347C746.812 226.899 743.731 226.176 740.651 226.176Z" fill="black"/>
<path d="M704.756 263.221L699.69 250.279H683.381L678.371 263.221H673.584L689.671 222.363H693.651L709.654 263.221H704.756ZM698.215 246.021L693.484 233.413C692.872 231.817 692.241 229.859 691.591 227.54C691.183 229.321 690.599 231.279 689.838 233.413L685.051 246.021H698.215Z" fill="black"/>
<path d="M640.694 246.3V263.222H635.963V222.531H647.124C652.115 222.531 655.798 223.487 658.173 225.398C660.566 227.309 661.763 230.185 661.763 234.026C661.763 239.407 659.036 243.043 653.581 244.936L664.63 263.222H659.036L649.183 246.3H640.694ZM640.694 242.236H647.179C650.519 242.236 652.968 241.578 654.527 240.26C656.085 238.924 656.865 236.93 656.865 234.276C656.865 231.586 656.067 229.647 654.471 228.459C652.894 227.272 650.352 226.678 646.845 226.678H640.694V242.236Z" fill="black"/>
<path d="M608.946 263.222H604.214V226.734H591.328V222.531H621.832V226.734H608.946V263.222Z" fill="black"/>
<path d="M554.466 263.222H549.734V244.073H528.304V263.222H523.572V222.531H528.304V239.843H549.734V222.531H554.466V263.222Z" fill="black"/>
<path d="M496.555 263.222H491.824V226.734H478.938V222.531H509.441V226.734H496.555V263.222Z" fill="black"/>
<path d="M446.438 263.222V222.531H451.169V258.936H469.121V263.222H446.438Z" fill="black"/>
<path d="M427.965 263.221L422.899 250.279H406.59L401.58 263.221H396.793L412.88 222.363H416.86L432.863 263.221H427.965ZM421.424 246.021L416.693 233.413C416.081 231.817 415.45 229.859 414.8 227.54C414.392 229.321 413.808 231.279 413.047 233.413L408.26 246.021H421.424Z" fill="black"/>
<path d="M385.362 263.222H362.679V222.531H385.362V226.734H367.41V239.843H384.276V244.018H367.41V258.991H385.362V263.222Z" fill="black"/>
<path d="M343.511 263.222H338.779V244.073H317.349V263.222H312.617V222.531H317.349V239.843H338.779V222.531H343.511V263.222Z" fill="black"/>
<path d="M153.254 187.708C153.646 189.268 155.025 190.369 156.628 190.408H156.71C158.281 190.408 159.671 189.379 160.123 187.868L170.048 154.783H192.335C193.569 154.783 194.658 154.156 195.297 153.201C195.517 154.976 195.634 156.709 195.634 158.391C195.634 185.725 173.402 208.002 146.022 208.002C118.643 208.002 96.4111 185.725 96.4111 158.391C96.4111 156.709 96.5274 154.976 96.7471 153.201C97.3863 154.156 98.4754 154.783 99.71 154.783H128.21C129.781 154.783 131.171 153.75 131.623 152.243L138.584 129.033L153.254 187.708ZM146.022 70.4395C147.975 70.4395 149.839 71.3269 151.126 72.791C152.767 74.7527 187.624 116.497 194.471 148.369C193.875 147.923 193.136 147.658 192.335 147.658H167.397C165.826 147.658 164.437 148.691 163.984 150.198L157.023 173.408L142.354 114.733C141.962 113.173 140.583 112.072 138.979 112.033C137.398 112.076 135.944 113.034 135.484 114.573L125.56 147.658H99.71C98.9086 147.658 98.1686 147.922 97.5732 148.369C104.42 116.496 139.279 74.7513 140.919 72.791C142.206 71.3268 144.07 70.4395 146.022 70.4395Z" fill="#124327"/>
<path d="M147.153 297.564C106.971 297.564 72.4 283.989 43.44 256.839C14.48 229.327 0 193.489 0 149.325C0 105.161 15.023 69.323 45.069 41.811C75.477 13.937 112.401 0 155.841 0C199.281 0 236.024 15.023 266.07 45.069L230.232 89.052C205.254 67.332 180.095 56.472 154.755 56.472C129.415 56.472 107.333 64.979 88.509 81.993C70.047 98.645 60.816 120.365 60.816 147.153C60.816 173.579 70.047 196.023 88.509 214.485C106.971 232.947 129.596 242.178 156.384 242.178C183.534 242.178 209.055 229.87 232.947 205.254L268.785 244.35C233.671 279.826 193.127 297.564 147.153 297.564Z" fill="#124327"/>
</svg>
